<svg version="1.1" id="Layer_1" xmlns="http://www.w3.org/2000/svg" xmlns:xlink="http://www.w3.org/1999/xlink" x="0px" y="0px" width="213px" height="61px" viewBox="0 0 213 61" enable-background="new 0 0 213 61" xml:space="preserve"><g><path fill="#F3F3F3" stroke="#E6E6E5" stroke-miterlimit="10" d="M40.615,10.583l27.189,38.386h0.111V10.583h1.114v39.781h-1.67l-27.19-38.39h-0.112v38.39h-1.114V10.583H40.615z"/><path fill="#F3F3F3" stroke="#E6E6E5" stroke-miterlimit="10" d="M76.161,30.193V49.25h25.518v1.114H75.046V10.583h26.409v1.115H76.161V29.08V30.193z"/><path fill="none" stroke="#60C6C5" stroke-miterlimit="10" d="M88.432,29.08h33.089v1.113H88.432"/><path fill="#F3F3F3" stroke="#E6E6E5" stroke-miterlimit="10" d="M124.771,32.26l15.154,18.129h-1.395l-14.54-17.233L124.771,32.26z M123.991,29.049"/><path fill="#60C6C5" stroke="#E6E6E5" stroke-miterlimit="10" d="M123.991,26.508l13.874-16.119h1.391L124.771,27.4L123.991,26.508z"/><path fill="none" stroke="#60C6C5" stroke-miterlimit="10" d="M122.547,29.916l-0.779,0.892L107.17,50.364h-1.394l15.266-20.448l-14.43-19.333h1.393l13.763,18.441L122.547,29.916z M122.547,29.916"/><path fill="#F3F3F3" stroke="#E6E6E5" stroke-miterlimit="10" d="M143.722,10.583h29.696v1.115H159.1v38.666h-1.115V11.698h-14.263V10.583z"/><path fill="#F3F3F3" stroke="#E6E6E5" stroke-miterlimit="10" d="M76.645,30.199"/></g></svg>